# xmcd
#
# Track frame offsets: 
#        183
#        15160
#        32245
#        55093
#        60168
#        79830
#        116710
#        133475
#        147265
#        153978
#        173903
#        191008
#
# Disc length: 2769 seconds
#
# Revision: 3
# Processed by: cddbd v1.5.2PL0 Copyright (c) Steve Scherf et al.
# Submitted via: ExactAudioCopy v1.0b1
#
DISCID=9d0acf0c
DTITLE=Blodwyn Pig - Getting To This
DYEAR=1970
DGENRE=Blues
TTITLE0=Drive Me
TTITLE1=Variations On Nainos
TTITLE2=See My Way
TTITLE3=Long Bomb Blues
TTITLE4=The Squirreling Must Go On
TTITLE5=San Fransisco Sketches
TTITLE6=Worry
TTITLE7=Toys
TTITLE8=To Rassman
TTITLE9=Send Your Son to Die
TTITLE10=Summer Day (bonus)
TTITLE11=Walk On The Water (bonus)
EXTD=
EXTT0=
EXTT1=
EXTT2=
EXTT3=
EXTT4=
EXTT5=
EXTT6=
EXTT7=
EXTT8=
EXTT9=
EXTT10=
EXTT11=
PLAYORDER=
